# xmcd
#
# Track frame offsets:
#	150
#	18669
#	33050
#	46087
#	60023
#	77929
#	90116
#	101293
#	112024
#	131365
#
# Disc length: 1954 seconds
#
# Revision: 0
# Processed by: cddbd v1.5.1PL0 Copyright (c) Steve Scherf et al.
# Submitted via: dBpowerAMP V4.0
#
DISCID=6407a00a
DTITLE=Hank Williams Jr. - Greatest Hits Vol. 1
DYEAR=1993
DGENRE=Country
TTITLE0=Family Tradition
TTITLE1=Whiskey Bent And Hell Bound
TTITLE2=Women I've Never Had
TTITLE3=Old Habits
TTITLE4=All My Rowdy Friends ( Have Settled Down )
TTITLE5=Dixie On My Mind
TTITLE6=Texas Women
TTITLE7=The American Dream
TTITLE8=A Country Boy Can Survive
TTITLE9=Angels Are Hard To Find
EXTD=
EXTT0=
EXTT1=
EXTT2=
EXTT3=
EXTT4=
EXTT5=
EXTT6=
EXTT7=
EXTT8=
EXTT9=
PLAYORDER=
